# xmcd
#
# Track frame offsets: 
#        150
#        24856
#        41498
#        60007
#        80704
#        102567
#        121786
#        141698
#        160379
#        179935
#        200498
#        219853
#        241734
#
# Disc length: 3493 seconds
#
# Revision: 7
# Processed by: cddbd v1.5.2PL0 Copyright (c) Steve Scherf et al.
# Submitted via: ExactAudioCopyFreeDBPlugin 1.0
#
DISCID=b30da30d
DTITLE=童麗 - 獨家愛唱 柒
DYEAR=2007
DGENRE=Pop
TTITLE0=願嫁漢家郎
TTITLE1=紅薔薇
TTITLE2=情人再見
TTITLE3=你的眼神
TTITLE4=月光小夜曲
TTITLE5=庭院深深
TTITLE6=油麻菜籽
TTITLE7=送別
TTITLE8=重相逢
TTITLE9=煙雨斜陽
TTITLE10=夢中人
TTITLE11=恰似你的溫柔
TTITLE12=訴衷情
EXTD=
EXTT0=
EXTT1=
EXTT2=
EXTT3=
EXTT4=
EXTT5=
EXTT6=
EXTT7=
EXTT8=
EXTT9=
EXTT10=
EXTT11=
EXTT12=
PLAYORDER=
